<?xml version="1.0" encoding="utf-8"?>
<!-- Generator: Adobe Illustrator 16.0.0, SVG Export Plug-In . SVG Version: 6.00 Build 0)  -->
<!DOCTYPE svg PUBLIC "-//W3C//DTD SVG 1.1//EN" "http://www.w3.org/Graphics/SVG/1.1/DTD/svg11.dtd">
<svg version="1.1" id="Layer_1" xmlns="http://www.w3.org/2000/svg" xmlns:xlink="http://www.w3.org/1999/xlink" x="0px" y="0px"
	 width="1190.55px" height="841.89px" viewBox="0 0 1190.55 841.89" enable-background="new 0 0 1190.55 841.89"
	 xml:space="preserve">
<g>
	<g>
		<path fill="#349E7E" d="M190.589,438.145c-5.981,0-11.577-1.717-16.792-5.15c-5.218-3.436-9.416-8.588-12.594-15.457
			c-3.181-6.87-4.771-15.457-4.771-25.762c0-11.068,2.004-20.609,6.011-28.624s9.731-14.184,17.174-18.51
			c7.442-4.323,16.187-6.488,26.238-6.488c5.978,0,12.213,0.668,18.701,2.004c6.487,1.335,12.976,2.26,19.464,2.767l2.099,2.48
			l-2.29,3.436c-0.763,1.145-1.368,2.26-1.812,3.339c-0.447,1.083-0.668,2.451-0.668,4.103v62.399c0,3.944,1.908,5.916,5.725,5.916
			c3.179,0,6.36-1.146,9.542-3.436l3.626,4.961c-3.31,3.691-6.84,6.617-10.591,8.777c-3.754,2.162-7.284,3.244-10.591,3.244
			c-5.218,0-8.968-1.592-11.259-4.77c-2.29-3.178-3.434-8.33-3.434-15.457c-5.472,7.761-10.972,13.072-16.506,15.935
			C202.325,436.715,196.567,438.145,190.589,438.145z M198.223,423.451c4.833,0,9.508-1.397,14.025-4.197
			c4.515-2.797,8.555-7.186,12.118-13.167v-51.522c-5.853-3.942-12.088-5.916-18.701-5.916c-9.287,0-16.477,3.468-21.563,10.4
			c-5.089,6.935-7.633,16.634-7.633,29.101c0,8.652,1.017,15.552,3.053,20.704c2.033,5.152,4.738,8.873,8.11,11.163
			C191.001,422.308,194.532,423.451,198.223,423.451z M220.74,326.896l-21.563-10.686c-3.944-1.909-6.711-3.975-8.3-6.202
			c-1.592-2.224-2.385-4.738-2.385-7.538c0-2.797,0.73-5.215,2.194-7.251c1.461-2.033,3.402-3.625,5.82-4.771l29.768,29.769
			L220.74,326.896z"/>
		<path fill="#349E7E" d="M413.66,440.244l-1.527-2.1c-1.4-1.781-4.072-2.67-8.014-2.67h-76.33l-2.1-6.107l4.007-1.145
			c4.58-1.398,7.663-3.148,9.255-5.248c1.589-2.099,2.386-5.945,2.386-11.544v-87.588c0-5.978-0.83-10.113-2.481-12.403
			c-1.656-2.29-4.899-4.07-9.732-5.343l-4.389-1.145l2.291-6.488h41.79l2.481,3.053l-2.481,3.435
			c-3.053,4.326-5.248,8.778-6.583,13.357c-1.335,4.58-2.003,10.751-2.003,18.51v73.277c0,5.853,0.793,9.732,2.385,11.64
			c1.589,1.91,4.866,2.863,9.827,2.863h16.602c4.58,0,8.14-0.477,10.686-1.432c2.543-0.954,4.58-2.671,6.106-5.152
			s2.863-5.945,4.007-10.4l1.146-4.389l6.488,2.29v32.629L413.66,440.244z"/>
		<path fill="#349E7E" d="M465.561,438.145c-5.981,0-11.577-1.717-16.792-5.15c-5.218-3.436-9.416-8.588-12.594-15.457
			c-3.181-6.87-4.771-15.457-4.771-25.762c0-11.068,2.004-20.609,6.012-28.624s9.731-14.184,17.174-18.51
			c7.442-4.323,16.187-6.488,26.238-6.488c5.978,0,12.213,0.668,18.701,2.004c6.487,1.335,12.976,2.26,19.463,2.767l2.099,2.48
			l-2.29,3.436c-0.763,1.145-1.368,2.26-1.813,3.339c-0.447,1.083-0.668,2.451-0.668,4.103v62.399c0,3.944,1.909,5.916,5.725,5.916
			c3.179,0,6.36-1.146,9.541-3.436l3.626,4.961c-3.31,3.691-6.84,6.617-10.591,8.777c-3.754,2.162-7.284,3.244-10.591,3.244
			c-5.218,0-8.968-1.592-11.259-4.77c-2.29-3.178-3.434-8.33-3.434-15.457c-5.472,7.761-10.972,13.072-16.506,15.935
			C477.296,436.715,471.539,438.145,465.561,438.145z M473.194,423.451c4.833,0,9.508-1.397,14.025-4.197
			c4.514-2.797,8.554-7.186,12.118-13.167v-51.522c-5.853-3.942-12.088-5.916-18.701-5.916c-9.288,0-16.477,3.468-21.563,10.4
			c-5.089,6.935-7.632,16.634-7.632,29.101c0,8.652,1.016,15.552,3.053,20.704c2.034,5.152,4.738,8.873,8.11,11.163
			C465.973,422.308,469.503,423.451,473.194,423.451z"/>
		<path fill="#349E7E" d="M688.631,440.244l-1.527-2.1c-1.4-1.781-4.071-2.67-8.014-2.67h-76.33l-2.098-6.107l4.006-1.145
			c4.58-1.398,7.662-3.148,9.256-5.248c1.589-2.099,2.386-5.945,2.386-11.544v-87.588c0-5.978-0.83-10.113-2.482-12.403
			c-1.653-2.29-4.897-4.07-9.731-5.343l-4.389-1.145l2.29-6.488h41.79l2.481,3.053l-2.481,3.435
			c-3.054,4.326-5.248,8.778-6.583,13.357c-1.336,4.58-2.004,10.751-2.004,18.51v73.277c0,5.853,0.794,9.732,2.386,11.64
			c1.589,1.91,4.865,2.863,9.827,2.863h16.602c4.58,0,8.14-0.477,10.687-1.432c2.543-0.954,4.579-2.671,6.105-5.152
			c1.527-2.481,2.862-5.945,4.009-10.4l1.144-4.389l6.488,2.29v32.629L688.631,440.244z"/>
		<path fill="#349E7E" d="M746.639,438.145c-9.159,0-16.315-2.766-21.468-8.299c-5.151-5.533-7.728-13.326-7.728-23.377v-47.706
			c0-2.796-1.273-4.198-3.816-4.198h-8.397l-1.717-4.961c3.308-3.307,7.347-6.041,12.117-8.206
			c4.771-2.162,9.126-3.244,13.072-3.244c1.78,0,3.244,0.573,4.389,1.717c1.145,1.146,1.718,2.609,1.718,4.39v57.819
			c0,15.522,6.105,23.281,18.318,23.281c8.522,0,15.17-3.689,19.941-11.068c4.771-7.377,7.155-17.556,7.155-30.532
			c0-6.232-0.161-11.575-0.477-16.029c-0.318-4.452-0.987-8.363-2.003-11.735c-1.021-3.369-2.673-6.518-4.962-9.446l-2.291-3.053
			l2.291-2.863l23.28-2.48v80.528c0,3.944,1.843,5.916,5.534,5.916c2.924,0,6.041-1.146,9.351-3.436l3.626,4.961
			c-2.929,3.564-6.331,6.459-10.211,8.684c-3.881,2.223-7.474,3.338-10.78,3.338c-9.797,0-14.693-6.105-14.693-18.318
			c-2.801,5.599-7.094,10.05-12.881,13.357C760.218,436.492,753.762,438.145,746.639,438.145z"/>
		<path fill="#349E7E" d="M916.852,438.145c-5.218,0-8.97-1.592-11.258-4.77c-2.291-3.178-3.436-8.33-3.436-15.457v-45.417
			c0-12.975-5.471-19.463-16.411-19.463c-5.472,0-10.274,2.165-14.407,6.488c-4.135,4.325-7.379,10.399-9.731,18.223
			c-2.356,7.824-3.53,16.888-3.53,27.192c0,5.981,0.444,10.752,1.336,14.312c0.888,3.563,2.479,6.998,4.771,10.305l2.289,3.053
			l-2.289,2.863H830.79l-2.1-5.916l4.007-0.953c3.308-0.764,5.47-2.162,6.488-4.199c1.017-2.033,1.526-5.406,1.526-10.113v-53.622
			c0-2.796-1.271-4.198-3.815-4.198H828.5l-1.718-4.961c3.688-3.307,7.92-6.041,12.69-8.206c4.771-2.162,8.936-3.244,12.498-3.244
			c1.781,0,3.244,0.572,4.39,1.718c1.145,1.145,1.718,2.609,1.718,4.389v20.418c2.162-5.597,5.119-10.526,8.872-14.789
			c3.752-4.261,7.949-7.6,12.596-10.018c4.642-2.416,9.38-3.626,14.216-3.626c8.902,0,15.391,2.738,19.464,8.206
			c4.07,5.471,6.106,14.187,6.106,26.143v46.18c0,4.326,1.908,6.488,5.724,6.488c2.926,0,6.108-1.336,9.542-4.008l3.626,4.961
			c-3.31,3.691-6.87,6.617-10.687,8.777C923.721,437.063,920.158,438.145,916.852,438.145z"/>
		<path fill="#349E7E" d="M995.279,438.145c-8.906,0-16.635-2.035-23.186-6.105c-6.553-4.068-11.641-9.762-15.265-17.079
			c-3.626-7.314-5.438-15.868-5.438-25.666c0-10.304,2.033-19.273,6.106-26.906c4.07-7.633,9.826-13.578,17.269-17.842
			c7.443-4.261,16.125-6.393,26.049-6.393c7.376,0,13.453,1.336,18.224,4.007s8.329,6.139,10.686,10.4
			c2.353,4.264,3.529,8.811,3.529,13.644c0,5.218-1.368,10.304-4.103,15.266c-2.736,4.961-6.807,9.034-12.212,12.213
			c-5.409,3.181-12.118,4.771-20.133,4.771c-1.273,0-3.085-0.158-5.438-0.478c-2.355-0.316-4.708-0.826-7.061-1.526
			c-2.354-0.697-4.359-1.622-6.01-2.767c-1.655-1.146-2.481-2.544-2.481-4.198c0-1.018,0.287-1.971,0.858-2.863
			c0.573-0.889,1.241-1.335,2.003-1.335c1.018,0,2.32,0.415,3.912,1.241c1.591,0.828,4.357,1.24,8.302,1.24
			c5.468,0,9.985-1.05,13.548-3.148c3.562-2.099,6.232-4.833,8.015-8.206c1.779-3.369,2.673-6.837,2.673-10.4
			c0-4.705-1.528-8.936-4.581-12.69c-3.053-3.75-7.569-5.629-13.548-5.629c-8.144,0-14.503,3.563-19.082,10.687
			c-4.58,7.126-6.87,17.431-6.87,30.913c0,11.196,2.385,20.037,7.155,26.525c4.771,6.488,11.8,9.731,21.086,9.731
			c5.344,0,10.367-0.889,15.075-2.671c4.706-1.78,8.969-4.514,12.786-8.206c0.506-0.507,1.079-0.764,1.717-0.764
			c1.018,0,2.1,0.606,3.244,1.813c1.145,1.21,1.718,2.45,1.718,3.721c0,0.638-0.256,1.21-0.764,1.717
			C1023.265,432.486,1010.671,438.145,995.279,438.145z"/>
	</g>
	<g>
		<path fill="#349E7E" d="M258.89,519.895h10.079l-1.127,5.262c2.368-2.006,5.09-3.008,8.165-3.008c2.619,0,4.646,0.797,6.082,2.393
			c1.64,1.867,2.459,4.748,2.459,8.643c0,3.76-0.478,7.289-1.435,10.592c-1.208,4.213-2.961,7.482-5.262,9.805
			c-2.825,2.871-6.332,4.305-10.522,4.305c-1.617,0-2.95-0.25-3.997-0.752c-0.797-0.363-1.447-0.945-1.947-1.742l-3.622,17.049
			l-10.557,2.527L258.89,519.895z M270.984,548.354c1.275-1.801,2.3-4.328,3.075-7.584c0.615-2.621,0.922-5.217,0.922-7.791
			c0-2.299-0.421-3.939-1.264-4.918c-0.546-0.592-1.298-0.889-2.255-0.889c-0.843,0-1.697,0.297-2.562,0.889
			c-0.866,0.59-1.618,1.445-2.255,2.561l-4.134,19.576c0.159,0.455,0.461,0.838,0.905,1.145c0.444,0.309,1.03,0.463,1.759,0.463
			C267.431,551.805,269.366,550.652,270.984,548.354z"/>
		<path fill="#349E7E" d="M288.237,555.391c-1.913-1.957-2.87-4.875-2.87-8.746c0-1.639,0.165-3.371,0.495-5.193
			c0.331-1.82,0.814-3.621,1.452-5.396c1.458-4.008,3.451-7.244,5.979-9.703c2.915-2.801,6.275-4.203,10.079-4.203
			c1.89,0,3.308,0.326,4.253,0.975c0.945,0.648,1.418,1.51,1.418,2.58v0.512l0.751-3.725h10.079l-5.022,23.779
			c-0.205,0.684-0.308,1.436-0.308,2.254c0,2.006,0.957,3.008,2.87,3.008c1.275,0,2.437-0.65,3.485-1.947
			c0.888-1.094,1.617-2.643,2.187-4.646h2.938c-1.253,3.553-2.767,6.365-4.543,8.438c-1.503,1.709-3.201,2.939-5.091,3.689
			c-1.39,0.547-2.859,0.82-4.407,0.82c-1.981,0-3.559-0.539-4.731-1.623c-1.173-1.08-1.885-2.682-2.135-4.799
			c-1.322,1.867-2.711,3.324-4.168,4.373c-1.868,1.365-3.952,2.049-6.252,2.049C292.029,557.885,289.877,557.055,288.237,555.391z
			 M300.895,550.711c0.581-0.273,1.145-0.66,1.691-1.162c1.23-1.186,2.05-2.723,2.46-4.611l3.348-15.785
			c0-0.229-0.051-0.494-0.154-0.803c-0.103-0.307-0.246-0.598-0.427-0.871c-0.546-0.66-1.31-0.99-2.289-0.99
			c-0.934,0-1.839,0.307-2.716,0.922c-0.877,0.615-1.703,1.469-2.477,2.563c-1.367,1.982-2.494,4.566-3.382,7.756
			c-0.41,1.412-0.717,2.807-0.922,4.186s-0.308,2.623-0.308,3.74c0,2.322,0.433,3.895,1.298,4.715
			c0.296,0.318,0.626,0.523,0.991,0.615c0.364,0.092,0.774,0.137,1.23,0.137C299.761,551.121,300.314,550.984,300.895,550.711z"/>
		<path fill="#349E7E" d="M324.725,555.904c-1.458-1.459-2.187-3.588-2.187-6.389c0-1.322,0.182-2.848,0.546-4.578l4.202-19.645
			h-2.323l0.581-2.803h2.289l2.118-9.668l10.352-1.4l-2.391,11.068h4.202l-0.547,2.803h-4.202l-4.476,20.977
			c-0.183,0.592-0.273,1.344-0.273,2.254c0,0.957,0.222,1.629,0.667,2.016c0.444,0.387,1.167,0.582,2.169,0.582
			c0.683,0,1.35-0.154,1.999-0.461c0.649-0.309,1.247-0.734,1.793-1.281c1.116-1.117,1.958-2.598,2.528-4.441h2.938
			c-1.253,3.529-2.825,6.344-4.714,8.438c-1.595,1.709-3.394,2.939-5.398,3.689c-1.458,0.547-2.984,0.82-4.578,0.82
			C327.788,557.885,326.022,557.225,324.725,555.904z"/>
		<path fill="#349E7E" d="M343.412,555.904c-1.458-1.459-2.187-3.588-2.187-6.389c0-1.322,0.183-2.848,0.547-4.578l4.749-22.447
			H356.6l-5.022,23.779c-0.183,0.592-0.273,1.344-0.273,2.254c0,0.957,0.222,1.629,0.667,2.016c0.444,0.387,1.167,0.582,2.169,0.582
			c0.683,0,1.349-0.154,1.999-0.461c0.649-0.309,1.247-0.734,1.793-1.281c1.116-1.117,1.958-2.598,2.528-4.441h2.938
			c-1.253,3.529-2.825,6.344-4.715,8.438c-1.595,1.709-3.394,2.939-5.397,3.689c-1.458,0.547-2.984,0.82-4.578,0.82
			C346.476,557.885,344.71,557.225,343.412,555.904z M351.304,518.271c-0.683-0.283-1.275-0.678-1.776-1.178
			c-0.501-0.479-0.895-1.061-1.179-1.744c-0.285-0.682-0.427-1.4-0.427-2.152c0-0.75,0.142-1.469,0.427-2.152
			c0.284-0.682,0.677-1.287,1.179-1.811c0.501-0.523,1.093-0.926,1.776-1.213c0.684-0.283,1.401-0.426,2.152-0.426
			c0.752,0,1.469,0.143,2.152,0.426c0.684,0.287,1.287,0.689,1.811,1.213c0.523,0.523,0.928,1.129,1.213,1.811
			c0.284,0.684,0.427,1.402,0.427,2.152c0,0.752-0.143,1.471-0.427,2.152c-0.285,0.684-0.689,1.266-1.213,1.744
			c-0.524,0.5-1.127,0.895-1.811,1.178c-0.683,0.285-1.4,0.428-2.152,0.428C352.705,518.699,351.988,518.557,351.304,518.271z"/>
		<path fill="#349E7E" d="M363.945,557.117c-1.298-0.514-2.392-1.225-3.28-2.137c-0.82-0.842-1.435-1.781-1.845-2.818
			c-0.41-1.035-0.615-2.111-0.615-3.229c0-1.525,0.387-2.904,1.162-4.133c0.683-1.094,1.537-1.879,2.563-2.357
			c1.821-3.234,3.405-6.516,4.749-9.84c1.343-3.324,2.631-6.959,3.861-10.898l10.352-1.367c0.273,5.922,0.523,10.465,0.752,13.633
			c0.228,3.256,0.42,5.646,0.581,7.174c0.137,1.777,0.205,3.324,0.205,4.646c0,1.186-0.092,2.072-0.273,2.664
			c2.095-1.229,3.769-2.402,5.022-3.518h2.938c-1.663,1.936-3.377,3.598-5.142,4.988c-1.766,1.389-3.616,2.641-5.552,3.758
			c-1.39,1.457-3.132,2.539-5.228,3.244c-1.822,0.639-3.747,0.957-5.773,0.957C366.735,557.885,365.243,557.629,363.945,557.117z
			 M370.402,550.916c1.252-1.139,1.879-2.824,1.879-5.057c0-0.934-0.058-2.107-0.171-3.52l-0.171-2.084
			c-0.205-1.799-0.41-3.883-0.615-6.252l-0.376-4.715c-0.661,2.119-1.446,4.221-2.357,6.305c-0.912,2.084-2.016,4.389-3.314,6.918
			c1.07,0.592,1.606,1.4,1.606,2.426c0,0.91-0.273,1.697-0.82,2.357c-0.593,0.729-1.344,1.092-2.255,1.092
			c-0.456,0-0.837-0.061-1.145-0.188c-0.308-0.123-0.553-0.369-0.734-0.734c0,1.686,0.33,2.922,0.991,3.707
			c0.66,0.785,1.753,1.178,3.28,1.178C367.953,552.35,369.354,551.873,370.402,550.916z"/>
		<path fill="#349E7E" d="M390.662,557.117c-1.298-0.514-2.391-1.225-3.28-2.137c-0.82-0.842-1.435-1.781-1.845-2.818
			c-0.41-1.035-0.615-2.111-0.615-3.229c0-1.525,0.388-2.904,1.162-4.133c0.683-1.094,1.537-1.879,2.562-2.357
			c1.822-3.234,3.405-6.516,4.749-9.84c1.343-3.324,2.63-6.959,3.86-10.898l10.352-1.367c0.273,5.922,0.523,10.465,0.751,13.633
			c0.228,3.256,0.421,5.646,0.581,7.174c0.137,1.777,0.205,3.324,0.205,4.646c0,1.186-0.091,2.072-0.273,2.664
			c2.095-1.229,3.769-2.402,5.022-3.518h2.938c-1.663,1.936-3.376,3.598-5.142,4.988c-1.766,1.389-3.616,2.641-5.552,3.758
			c-1.39,1.457-3.132,2.539-5.227,3.244c-1.822,0.639-3.747,0.957-5.774,0.957C393.452,557.885,391.96,557.629,390.662,557.117z
			 M397.119,550.916c1.252-1.139,1.879-2.824,1.879-5.057c0-0.934-0.058-2.107-0.171-3.52l-0.171-2.084
			c-0.205-1.799-0.41-3.883-0.615-6.252l-0.375-4.715c-0.661,2.119-1.447,4.221-2.357,6.305c-0.912,2.084-2.016,4.389-3.314,6.918
			c1.07,0.592,1.606,1.4,1.606,2.426c0,0.91-0.273,1.697-0.82,2.357c-0.592,0.729-1.344,1.092-2.255,1.092
			c-0.456,0-0.837-0.061-1.145-0.188c-0.307-0.123-0.553-0.369-0.734-0.734c0,1.686,0.33,2.922,0.991,3.707
			c0.66,0.785,1.753,1.178,3.28,1.178C394.67,552.35,396.071,551.873,397.119,550.916z"/>
		<path fill="#349E7E" d="M415.943,555.289c-1.981-1.846-2.972-4.682-2.972-8.508c0-1.434,0.143-3.029,0.427-4.783
			c0.285-1.752,0.711-3.508,1.281-5.26c0.638-1.959,1.452-3.816,2.443-5.57c0.991-1.752,2.146-3.303,3.468-4.646
			c3.051-3.098,6.81-4.646,11.274-4.646c2.846,0,4.919,0.684,6.218,2.051c1.001,1.07,1.503,2.619,1.503,4.646
			c0,1.98-0.433,3.844-1.298,5.586c-0.866,1.742-2.062,3.285-3.587,4.629c-1.526,1.322-3.257,2.375-5.193,3.16
			c-1.937,0.785-3.941,1.248-6.013,1.385c-0.114,1.184-0.171,2.117-0.171,2.801c0,2.277,0.433,3.85,1.298,4.715
			c0.752,0.775,2.004,1.162,3.758,1.162c2.528,0,4.839-0.684,6.935-2.051c0.889-0.57,1.743-1.246,2.563-2.033
			c0.82-0.785,1.776-1.783,2.87-2.988h2.392c-2.209,3.734-4.749,6.707-7.619,8.916c-3.53,2.688-7.403,4.031-11.616,4.031
			C420.464,557.885,417.811,557.02,415.943,555.289z M427.833,538.855c1.23-0.66,2.323-1.527,3.28-2.596
			c0.957-1.094,1.708-2.318,2.255-3.674c0.547-1.354,0.82-2.738,0.82-4.15c0-0.934-0.131-1.645-0.393-2.135
			c-0.263-0.49-0.712-0.734-1.35-0.734c-0.843,0-1.691,0.41-2.545,1.229c-0.854,0.82-1.68,1.947-2.477,3.383
			c-0.729,1.344-1.39,2.869-1.982,4.578c-0.592,1.709-1.059,3.451-1.4,5.227C425.339,539.891,426.603,539.516,427.833,538.855z"/>
		<path fill="#349E7E" d="M445.496,522.49h10.079l-0.888,4.34c1.594-1.412,2.892-2.416,3.895-3.006
			c1.548-0.889,3.063-1.334,4.544-1.334c1.503,0,2.71,0.537,3.622,1.605c0.41,0.479,0.717,1.031,0.922,1.658
			s0.307,1.291,0.307,1.998c0,0.639-0.102,1.254-0.307,1.846s-0.513,1.127-0.922,1.605c-0.456,0.502-1.008,0.898-1.657,1.195
			c-0.649,0.297-1.373,0.443-2.169,0.443c-0.615,0-1.105-0.102-1.469-0.307c-0.365-0.205-0.649-0.502-0.854-0.889
			c-0.182-0.387-0.307-0.762-0.375-1.127c-0.205-0.98-0.41-1.629-0.615-1.947c-0.16-0.229-0.41-0.342-0.751-0.342
			c-0.98,0-1.811,0.205-2.494,0.615s-1.549,1.094-2.596,2.049l-5.603,26.58h-10.079L445.496,522.49z"/>
		<path fill="#349E7E" d="M468.693,555.904c-1.458-1.459-2.187-3.588-2.187-6.389c0-1.322,0.183-2.848,0.546-4.578l4.749-22.447
			h10.079l-5.022,23.779c-0.182,0.592-0.273,1.344-0.273,2.254c0,0.957,0.222,1.629,0.666,2.016s1.167,0.582,2.169,0.582
			c0.683,0,1.35-0.154,1.999-0.461c0.649-0.309,1.247-0.734,1.793-1.281c1.116-1.117,1.958-2.598,2.528-4.441h2.938
			c-1.253,3.529-2.825,6.344-4.715,8.438c-1.595,1.709-3.394,2.939-5.398,3.689c-1.458,0.547-2.984,0.82-4.578,0.82
			C471.756,557.885,469.992,557.225,468.693,555.904z M476.585,518.271c-0.684-0.283-1.276-0.678-1.777-1.178
			c-0.501-0.479-0.895-1.061-1.179-1.744c-0.285-0.682-0.427-1.4-0.427-2.152c0-0.75,0.142-1.469,0.427-2.152
			c0.284-0.682,0.677-1.287,1.179-1.811c0.501-0.523,1.093-0.926,1.777-1.213c0.683-0.283,1.4-0.426,2.152-0.426
			c0.751,0,1.469,0.143,2.152,0.426c0.683,0.287,1.287,0.689,1.811,1.213c0.523,0.523,0.928,1.129,1.213,1.811
			c0.284,0.684,0.427,1.402,0.427,2.152c0,0.752-0.143,1.471-0.427,2.152c-0.285,0.684-0.689,1.266-1.213,1.744
			c-0.524,0.5-1.127,0.895-1.811,1.178c-0.684,0.285-1.401,0.428-2.152,0.428C477.986,518.699,477.269,518.557,476.585,518.271z"/>
		<path fill="#349E7E" d="M487.791,555.289c-1.981-1.846-2.972-4.682-2.972-8.508c0-1.434,0.143-3.029,0.427-4.783
			c0.285-1.752,0.711-3.508,1.281-5.26c0.637-1.959,1.452-3.816,2.442-5.57c0.991-1.752,2.146-3.303,3.468-4.646
			c3.052-3.098,6.81-4.646,11.274-4.646c2.846,0,4.919,0.684,6.218,2.051c1.001,1.07,1.503,2.619,1.503,4.646
			c0,1.98-0.434,3.844-1.298,5.586c-0.866,1.742-2.062,3.285-3.587,4.629c-1.526,1.322-3.257,2.375-5.193,3.16
			c-1.937,0.785-3.94,1.248-6.013,1.385c-0.114,1.184-0.17,2.117-0.17,2.801c0,2.277,0.432,3.85,1.298,4.715
			c0.752,0.775,2.004,1.162,3.758,1.162c2.528,0,4.84-0.684,6.936-2.051c0.888-0.57,1.742-1.246,2.562-2.033
			c0.82-0.785,1.777-1.783,2.87-2.988h2.391c-2.209,3.734-4.749,6.707-7.619,8.916c-3.53,2.688-7.402,4.031-11.616,4.031
			C492.312,557.885,489.659,557.02,487.791,555.289z M499.681,538.855c1.229-0.66,2.323-1.527,3.279-2.596
			c0.957-1.094,1.708-2.318,2.255-3.674c0.547-1.354,0.82-2.738,0.82-4.15c0-0.934-0.131-1.645-0.393-2.135
			c-0.262-0.49-0.712-0.734-1.35-0.734c-0.843,0-1.691,0.41-2.545,1.229c-0.854,0.82-1.68,1.947-2.477,3.383
			c-0.729,1.344-1.39,2.869-1.981,4.578c-0.593,1.709-1.059,3.451-1.401,5.227C497.187,539.891,498.451,539.516,499.681,538.855z"/>
		<path fill="#349E7E" d="M530.36,536.43h13.973l-1.161,5.5h-14.076L530.36,536.43z"/>
		<path fill="#349E7E" d="M565.174,555.391c-1.914-1.957-2.87-4.875-2.87-8.746c0-1.639,0.166-3.371,0.496-5.193
			c0.331-1.82,0.813-3.621,1.452-5.396c1.458-4.008,3.451-7.244,5.979-9.703c2.915-2.801,6.274-4.203,10.079-4.203
			c1.89,0,3.308,0.326,4.253,0.975c0.945,0.648,1.417,1.51,1.417,2.58v0.273l3.417-16.092l10.351-1.4l-8.028,37.785
			c-0.205,0.684-0.307,1.436-0.307,2.254c0,0.957,0.227,1.629,0.683,2.016c0.455,0.387,1.184,0.582,2.187,0.582
			c1.298,0,2.46-0.582,3.485-1.742c0.865-1.025,1.594-2.506,2.186-4.441h2.938c-1.23,3.508-2.744,6.275-4.543,8.301
			c-1.527,1.686-3.224,2.859-5.091,3.52c-1.344,0.479-2.813,0.717-4.407,0.717c-1.937,0-3.497-0.512-4.681-1.537
			c-1.185-1.025-1.913-2.518-2.187-4.475c-1.253,1.889-2.608,3.348-4.065,4.373c-1.891,1.365-3.986,2.049-6.286,2.049
			C568.966,557.885,566.813,557.055,565.174,555.391z M577.797,550.744c0.581-0.25,1.133-0.604,1.657-1.059
			c1.23-1.117,2.05-2.572,2.46-4.373v-0.375l3.417-16.023c-0.16-0.639-0.387-1.15-0.683-1.537c-0.479-0.592-1.208-0.889-2.187-0.889
			c-0.934,0-1.84,0.307-2.716,0.922c-0.877,0.615-1.703,1.469-2.477,2.563c-1.366,1.982-2.494,4.566-3.382,7.756
			c-0.41,1.412-0.718,2.807-0.923,4.186s-0.307,2.623-0.307,3.74c0,2.322,0.432,3.895,1.298,4.715
			c0.296,0.318,0.626,0.523,0.991,0.615c0.364,0.092,0.774,0.137,1.23,0.137C576.675,551.121,577.217,550.994,577.797,550.744z"/>
		<path fill="#349E7E" d="M602.002,555.289c-1.981-1.846-2.972-4.682-2.972-8.508c0-1.434,0.144-3.029,0.428-4.783
			c0.284-1.752,0.712-3.508,1.28-5.26c0.638-1.959,1.453-3.816,2.444-5.57c0.99-1.752,2.146-3.303,3.466-4.646
			c3.053-3.098,6.812-4.646,11.274-4.646c2.848,0,4.92,0.684,6.218,2.051c1.003,1.07,1.503,2.619,1.503,4.646
			c0,1.98-0.432,3.844-1.298,5.586c-0.865,1.742-2.061,3.285-3.588,4.629c-1.524,1.322-3.256,2.375-5.192,3.16
			c-1.935,0.785-3.939,1.248-6.013,1.385c-0.113,1.184-0.171,2.117-0.171,2.801c0,2.277,0.433,3.85,1.298,4.715
			c0.752,0.775,2.005,1.162,3.758,1.162c2.528,0,4.841-0.684,6.936-2.051c0.889-0.57,1.742-1.246,2.563-2.033
			c0.82-0.785,1.776-1.783,2.87-2.988h2.392c-2.209,3.734-4.749,6.707-7.619,8.916c-3.529,2.688-7.401,4.031-11.616,4.031
			C606.524,557.885,603.87,557.02,602.002,555.289z M613.892,538.855c1.229-0.66,2.323-1.527,3.279-2.596
			c0.957-1.094,1.708-2.318,2.255-3.674c0.547-1.354,0.82-2.738,0.82-4.15c0-0.934-0.131-1.645-0.392-2.135
			c-0.264-0.49-0.713-0.734-1.351-0.734c-0.842,0-1.69,0.41-2.544,1.229c-0.854,0.82-1.681,1.947-2.479,3.383
			c-0.729,1.344-1.389,2.869-1.981,4.578c-0.592,1.709-1.06,3.451-1.401,5.227C611.397,539.891,612.661,539.516,613.892,538.855z"/>
		<path fill="#349E7E" d="M630.29,557.117c-1.298-0.514-2.392-1.225-3.279-2.137c-0.82-0.842-1.436-1.781-1.845-2.818
			c-0.41-1.035-0.615-2.111-0.615-3.229c0-1.525,0.388-2.904,1.161-4.133c0.684-1.094,1.538-1.879,2.563-2.357
			c1.823-3.234,3.405-6.516,4.749-9.84c1.345-3.324,2.631-6.959,3.86-10.898l10.352-1.367c0.273,5.922,0.525,10.465,0.752,13.633
			c0.229,3.256,0.423,5.646,0.581,7.174c0.137,1.777,0.205,3.324,0.205,4.646c0,1.186-0.091,2.072-0.273,2.664
			c2.097-1.229,3.771-2.402,5.021-3.518h2.938c-1.661,1.936-3.376,3.598-5.14,4.988c-1.768,1.389-3.617,2.641-5.554,3.758
			c-1.389,1.457-3.131,2.539-5.228,3.244c-1.821,0.639-3.745,0.957-5.773,0.957C633.081,557.885,631.589,557.629,630.29,557.117z
			 M636.747,550.916c1.253-1.139,1.879-2.824,1.879-5.057c0-0.934-0.056-2.107-0.171-3.52l-0.17-2.084
			c-0.205-1.799-0.41-3.883-0.615-6.252l-0.376-4.715c-0.66,2.119-1.446,4.221-2.357,6.305c-0.91,2.084-2.016,4.389-3.313,6.918
			c1.071,0.592,1.605,1.4,1.605,2.426c0,0.91-0.273,1.697-0.82,2.357c-0.592,0.729-1.343,1.092-2.255,1.092
			c-0.455,0-0.835-0.061-1.143-0.188c-0.308-0.123-0.553-0.369-0.736-0.734c0,1.686,0.331,2.922,0.991,3.707
			c0.661,0.785,1.754,1.178,3.279,1.178C634.3,552.35,635.7,551.873,636.747,550.916z"/>
		<path fill="#349E7E" d="M670.741,555.289c-1.981-1.846-2.973-4.682-2.973-8.508c0-1.434,0.143-3.033,0.429-4.799
			c0.284-1.766,0.722-3.525,1.313-5.279c1.39-4.26,3.36-7.652,5.911-10.182c3.143-3.098,6.866-4.646,11.171-4.646
			c2.802,0,4.875,0.674,6.218,2.018c1.049,1.068,1.572,2.537,1.572,4.406c0,1.641-0.363,2.914-1.094,3.826
			c-0.683,0.844-1.559,1.264-2.631,1.264c-0.772,0-1.593-0.273-2.459-0.818c0.569-1.48,0.854-2.859,0.854-4.135
			c0-0.889-0.164-1.588-0.494-2.102c-0.332-0.512-0.814-0.768-1.453-0.768c-1.366,0-2.789,1.205-4.271,3.621
			c-1.343,2.141-2.46,4.861-3.348,8.164c-0.91,3.236-1.367,6.162-1.367,8.781c0,2.277,0.434,3.85,1.299,4.715
			c0.751,0.775,2.005,1.162,3.758,1.162c2.528,0,4.841-0.684,6.936-2.051c0.888-0.57,1.742-1.246,2.563-2.033
			c0.819-0.785,1.776-1.783,2.869-2.988h2.392c-2.208,3.734-4.749,6.707-7.618,8.916c-3.53,2.688-7.401,4.031-11.616,4.031
			C675.263,557.885,672.609,557.02,670.741,555.289z"/>
		<path fill="#349E7E" d="M700.293,522.49h10.078l-0.888,4.34c1.595-1.412,2.893-2.416,3.895-3.006
			c1.55-0.889,3.063-1.334,4.544-1.334c1.503,0,2.711,0.537,3.621,1.605c0.41,0.479,0.718,1.031,0.923,1.658
			s0.308,1.291,0.308,1.998c0,0.639-0.103,1.254-0.308,1.846s-0.513,1.127-0.923,1.605c-0.455,0.502-1.006,0.898-1.655,1.195
			s-1.372,0.443-2.171,0.443c-0.615,0-1.104-0.102-1.469-0.307c-0.363-0.205-0.649-0.502-0.854-0.889
			c-0.182-0.387-0.308-0.762-0.376-1.127c-0.205-0.98-0.41-1.629-0.614-1.947c-0.159-0.229-0.41-0.342-0.752-0.342
			c-0.979,0-1.811,0.205-2.494,0.615s-1.548,1.094-2.597,2.049l-5.603,26.58h-10.079L700.293,522.49z"/>
		<path fill="#349E7E" d="M724.037,555.221c-2.118-1.869-3.177-4.705-3.177-8.508c0-1.434,0.148-3.023,0.444-4.766
			c0.298-1.742,0.751-3.502,1.366-5.277c1.413-4.236,3.429-7.619,6.047-10.148c3.167-3.098,6.936-4.646,11.309-4.646
			c5.991,0,8.985,3.725,8.985,11.172v0.068c0.137,0.045,0.251,0.068,0.342,0.068h0.409c1.55,0,3.383-0.432,5.501-1.297
			c1.868-0.775,3.634-1.742,5.295-2.904l0.615,1.912c-1.366,1.436-3.124,2.654-5.276,3.656s-4.528,1.719-7.125,2.152
			c-0.273,3.166-0.889,6.053-1.845,8.66c-0.957,2.609-2.187,4.846-3.69,6.715c-1.479,1.82-3.177,3.221-5.09,4.201
			s-3.94,1.469-6.081,1.469C728.604,557.748,725.929,556.906,724.037,555.221z M737.38,550.352c0.854-0.738,1.655-1.77,2.407-3.092
			c0.752-1.32,1.4-2.869,1.947-4.646c0.547-1.775,0.957-3.678,1.23-5.705c-0.684-0.182-1.168-0.523-1.451-1.025
			c-0.285-0.502-0.429-1.139-0.429-1.912c0-0.957,0.194-1.754,0.581-2.393c0.389-0.639,0.923-1.104,1.605-1.4
			c-0.09-1.48-0.329-2.539-0.717-3.178c-0.205-0.318-0.46-0.547-0.768-0.684s-0.702-0.205-1.18-0.205
			c-1.572,0-3.109,1.186-4.612,3.555c-1.389,2.141-2.528,4.783-3.417,7.926c-0.864,3.074-1.298,5.809-1.298,8.199
			c0,1.162,0.062,2.107,0.189,2.836c0.124,0.729,0.335,1.299,0.63,1.707c0.273,0.41,0.628,0.701,1.06,0.873
			c0.434,0.17,1.003,0.256,1.708,0.256C735.688,551.463,736.526,551.092,737.38,550.352z"/>
		<path fill="#349E7E" d="M754.204,555.904c-1.456-1.459-2.187-3.588-2.187-6.389c0-1.322,0.184-2.848,0.547-4.578l4.749-22.447
			h10.078l-5.021,23.779c-0.182,0.592-0.273,1.344-0.273,2.254c0,0.957,0.224,1.629,0.668,2.016
			c0.443,0.387,1.166,0.582,2.167,0.582c0.684,0,1.352-0.154,2.001-0.461c0.648-0.309,1.245-0.734,1.792-1.281
			c1.116-1.117,1.96-2.598,2.528-4.441h2.938c-1.251,3.529-2.823,6.344-4.715,8.438c-1.593,1.709-3.393,2.939-5.397,3.689
			c-1.457,0.547-2.983,0.82-4.578,0.82C757.269,557.885,755.503,557.225,754.204,555.904z M762.097,518.271
			c-0.684-0.283-1.275-0.678-1.776-1.178c-0.5-0.479-0.895-1.061-1.178-1.744c-0.285-0.682-0.429-1.4-0.429-2.152
			c0-0.75,0.144-1.469,0.429-2.152c0.283-0.682,0.678-1.287,1.178-1.811c0.501-0.523,1.093-0.926,1.776-1.213
			c0.683-0.283,1.4-0.426,2.152-0.426c0.751,0,1.469,0.143,2.152,0.426c0.683,0.287,1.287,0.689,1.811,1.213
			c0.524,0.523,0.929,1.129,1.214,1.811c0.283,0.684,0.426,1.402,0.426,2.152c0,0.752-0.143,1.471-0.426,2.152
			c-0.285,0.684-0.689,1.266-1.214,1.744c-0.523,0.5-1.128,0.895-1.811,1.178c-0.684,0.285-1.401,0.428-2.152,0.428
			C763.497,518.699,762.779,518.557,762.097,518.271z"/>
		<path fill="#349E7E" d="M774.737,557.117c-1.298-0.514-2.392-1.225-3.28-2.137c-0.819-0.842-1.435-1.781-1.845-2.818
			c-0.409-1.035-0.614-2.111-0.614-3.229c0-1.525,0.388-2.904,1.161-4.133c0.684-1.094,1.537-1.879,2.563-2.357
			c1.823-3.234,3.405-6.516,4.749-9.84c1.345-3.324,2.631-6.959,3.86-10.898l10.352-1.367c0.273,5.922,0.525,10.465,0.752,13.633
			c0.229,3.256,0.422,5.646,0.581,7.174c0.137,1.777,0.205,3.324,0.205,4.646c0,1.186-0.091,2.072-0.273,2.664
			c2.096-1.229,3.771-2.402,5.021-3.518h2.938c-1.661,1.936-3.376,3.598-5.14,4.988c-1.768,1.389-3.617,2.641-5.554,3.758
			c-1.389,1.457-3.131,2.539-5.228,3.244c-1.821,0.639-3.745,0.957-5.773,0.957C777.528,557.885,776.035,557.629,774.737,557.117z
			 M781.194,550.916c1.253-1.139,1.879-2.824,1.879-5.057c0-0.934-0.056-2.107-0.171-3.52l-0.171-2.084
			c-0.205-1.799-0.409-3.883-0.614-6.252l-0.376-4.715c-0.66,2.119-1.446,4.221-2.357,6.305c-0.91,2.084-2.016,4.389-3.314,6.918
			c1.072,0.592,1.606,1.4,1.606,2.426c0,0.91-0.273,1.697-0.82,2.357c-0.592,0.729-1.344,1.092-2.255,1.092
			c-0.455,0-0.835-0.061-1.143-0.188c-0.308-0.123-0.553-0.369-0.736-0.734c0,1.686,0.331,2.922,0.991,3.707
			c0.661,0.785,1.754,1.178,3.279,1.178C778.747,552.35,780.147,551.873,781.194,550.916z"/>
		<path fill="#349E7E" d="M801.454,557.117c-1.299-0.514-2.392-1.225-3.28-2.137c-0.819-0.842-1.435-1.781-1.845-2.818
			c-0.41-1.035-0.615-2.111-0.615-3.229c0-1.525,0.389-2.904,1.162-4.133c0.683-1.094,1.537-1.879,2.563-2.357
			c1.823-3.234,3.405-6.516,4.749-9.84c1.345-3.324,2.63-6.959,3.86-10.898l10.352-1.367c0.273,5.922,0.524,10.465,0.752,13.633
			c0.228,3.256,0.422,5.646,0.58,7.174c0.137,1.777,0.205,3.324,0.205,4.646c0,1.186-0.09,2.072-0.273,2.664
			c2.097-1.229,3.771-2.402,5.022-3.518h2.938c-1.662,1.936-3.376,3.598-5.141,4.988c-1.767,1.389-3.616,2.641-5.553,3.758
			c-1.389,1.457-3.131,2.539-5.228,3.244c-1.821,0.639-3.746,0.957-5.773,0.957C804.244,557.885,802.752,557.629,801.454,557.117z
			 M807.911,550.916c1.253-1.139,1.879-2.824,1.879-5.057c0-0.934-0.056-2.107-0.171-3.52l-0.171-2.084
			c-0.205-1.799-0.41-3.883-0.615-6.252l-0.375-4.715c-0.66,2.119-1.446,4.221-2.357,6.305c-0.91,2.084-2.016,4.389-3.314,6.918
			c1.071,0.592,1.605,1.4,1.605,2.426c0,0.91-0.272,1.697-0.819,2.357c-0.592,0.729-1.344,1.092-2.255,1.092
			c-0.455,0-0.836-0.061-1.144-0.188c-0.307-0.123-0.553-0.369-0.735-0.734c0,1.686,0.33,2.922,0.99,3.707
			c0.662,0.785,1.755,1.178,3.28,1.178C805.464,552.35,806.864,551.873,807.911,550.916z"/>
		<path fill="#349E7E" d="M826.633,555.391c-1.913-1.957-2.869-4.875-2.869-8.746c0-1.639,0.166-3.371,0.496-5.193
			c0.33-1.82,0.814-3.621,1.451-5.396c1.458-4.008,3.45-7.244,5.979-9.703c2.916-2.801,6.275-4.203,10.078-4.203
			c1.892,0,3.309,0.326,4.256,0.975c0.943,0.648,1.416,1.51,1.416,2.58v0.512l0.751-3.725h10.079l-5.022,23.779
			c-0.205,0.684-0.308,1.436-0.308,2.254c0,2.006,0.957,3.008,2.87,3.008c1.276,0,2.438-0.65,3.484-1.947
			c0.889-1.094,1.618-2.643,2.187-4.646h2.938c-1.252,3.553-2.768,6.365-4.544,8.438c-1.503,1.709-3.199,2.939-5.091,3.689
			c-1.388,0.547-2.857,0.82-4.407,0.82c-1.981,0-3.559-0.539-4.729-1.623c-1.175-1.08-1.886-2.682-2.138-4.799
			c-1.319,1.867-2.709,3.324-4.168,4.373c-1.866,1.365-3.95,2.049-6.252,2.049C830.426,557.885,828.273,557.055,826.633,555.391z
			 M839.293,550.711c0.58-0.273,1.143-0.66,1.689-1.162c1.229-1.186,2.05-2.723,2.459-4.611l3.349-15.785
			c0-0.229-0.05-0.494-0.152-0.803c-0.103-0.307-0.245-0.598-0.429-0.871c-0.547-0.66-1.309-0.99-2.289-0.99
			c-0.933,0-1.838,0.307-2.714,0.922c-0.879,0.615-1.704,1.469-2.479,2.563c-1.367,1.982-2.494,4.566-3.383,7.756
			c-0.409,1.412-0.717,2.807-0.922,4.186s-0.308,2.623-0.308,3.74c0,2.322,0.434,3.895,1.298,4.715
			c0.297,0.318,0.628,0.523,0.991,0.615c0.365,0.092,0.774,0.137,1.229,0.137C838.159,551.121,838.712,550.984,839.293,550.711z"/>
		<path fill="#349E7E" d="M880.306,555.426c-1.207-1.412-1.812-3.223-1.812-5.432c0-1.049,0.131-2.268,0.395-3.656
			c0.262-1.391,0.654-3.178,1.178-5.363c0.524-2.232,0.916-4.016,1.18-5.348c0.262-1.332,0.392-2.488,0.392-3.467
			c0-2.393-0.842-3.588-2.528-3.588c-1.184,0-2.276,0.625-3.279,1.879c-0.842,1.07-1.572,2.596-2.187,4.578l-4.749,22.445h-10.078
			l7.413-34.984h10.079l-0.752,3.621c1.366-1.525,2.836-2.596,4.407-3.211c1.161-0.455,2.415-0.684,3.758-0.684
			c2.37,0,4.236,0.615,5.603,1.846c1.459,1.344,2.188,3.359,2.188,6.047c0,1.617-0.296,3.725-0.889,6.32
			c-0.158,0.752-0.421,1.879-0.786,3.383c-0.659,2.527-1.138,4.543-1.435,6.047c-0.182,0.957-0.273,1.732-0.273,2.322
			c0,0.934,0.211,1.658,0.634,2.17c0.419,0.514,1.143,0.77,2.168,0.77c1.39,0,2.563-0.57,3.519-1.709
			c0.73-0.865,1.516-2.357,2.357-4.475h2.938c-1.73,5.125-3.917,8.711-6.56,10.762c-1.867,1.457-4.02,2.186-6.457,2.186
			C883.837,557.885,881.695,557.064,880.306,555.426z"/>
		<path fill="#349E7E" d="M898.446,555.904c-1.456-1.459-2.187-3.588-2.187-6.389c0-1.322,0.184-2.848,0.547-4.578l4.202-19.645
			h-2.323l0.581-2.803h2.289l2.118-9.668l10.352-1.4l-2.392,11.068h4.202l-0.546,2.803h-4.202l-4.476,20.977
			c-0.182,0.592-0.273,1.344-0.273,2.254c0,0.957,0.224,1.629,0.667,2.016c0.444,0.387,1.167,0.582,2.168,0.582
			c0.684,0,1.352-0.154,2.001-0.461c0.648-0.309,1.245-0.734,1.792-1.281c1.116-1.117,1.959-2.598,2.528-4.441h2.938
			c-1.251,3.529-2.823,6.344-4.715,8.438c-1.593,1.709-3.393,2.939-5.397,3.689c-1.457,0.547-2.983,0.82-4.578,0.82
			C901.511,557.885,899.745,557.225,898.446,555.904z"/>
		<path fill="#349E7E" d="M918.979,557.117c-1.298-0.514-2.392-1.225-3.28-2.137c-0.819-0.842-1.435-1.781-1.845-2.818
			c-0.409-1.035-0.614-2.111-0.614-3.229c0-1.525,0.388-2.904,1.161-4.133c0.684-1.094,1.537-1.879,2.563-2.357
			c1.823-3.234,3.405-6.516,4.749-9.84c1.345-3.324,2.631-6.959,3.86-10.898l10.352-1.367c0.273,5.922,0.525,10.465,0.752,13.633
			c0.229,3.256,0.422,5.646,0.581,7.174c0.137,1.777,0.205,3.324,0.205,4.646c0,1.186-0.091,2.072-0.273,2.664
			c2.096-1.229,3.771-2.402,5.021-3.518h2.938c-1.661,1.936-3.376,3.598-5.141,4.988c-1.767,1.389-3.616,2.641-5.553,3.758
			c-1.389,1.457-3.131,2.539-5.228,3.244c-1.821,0.639-3.745,0.957-5.773,0.957C921.77,557.885,920.277,557.629,918.979,557.117z
			 M925.437,550.916c1.253-1.139,1.879-2.824,1.879-5.057c0-0.934-0.056-2.107-0.171-3.52l-0.171-2.084
			c-0.205-1.799-0.409-3.883-0.614-6.252l-0.376-4.715c-0.66,2.119-1.446,4.221-2.357,6.305c-0.91,2.084-2.016,4.389-3.314,6.918
			c1.072,0.592,1.606,1.4,1.606,2.426c0,0.91-0.273,1.697-0.82,2.357c-0.592,0.729-1.344,1.092-2.255,1.092
			c-0.455,0-0.835-0.061-1.143-0.188c-0.308-0.123-0.554-0.369-0.736-0.734c0,1.686,0.331,2.922,0.991,3.707
			c0.661,0.785,1.754,1.178,3.279,1.178C922.989,552.35,924.39,551.873,925.437,550.916z"/>
	</g>
	<g>
		<path fill-rule="evenodd" clip-rule="evenodd" fill="#349E7E" d="M595.999,198.914c-3.341-1.572-3.625-4.758-3.581-8.465
			c0.172-14.16,0.06-28.32,0.113-42.481c0.015-4.05-1.104-7.705-2.909-11.311c-1.454-2.902-2.243-6.13-3.548-9.118
			c-0.978-2.242-2.252-4.361-3.494-6.479c-0.744-1.271-1.729-2.401-2.515-3.651c-1.577-2.506-3.08-5.058-4.63-7.58
			c-1.63-2.654-3.18-5.364-4.945-7.925c-2.161-3.138-4.527-6.132-6.766-9.216c-0.855-1.177-2.061-2.367-2.251-3.676
			c-0.164-1.126,0.594-2.71,1.452-3.605c3.15-3.285,6.6-6.282,9.759-9.56c2.063-2.141,3.926-4.5,5.682-6.905
			c2.597-3.56,5.172-7.153,7.469-10.908c1.916-3.13,3.124-6.717,5.208-9.708c1.354-1.942,1.522-4.649,4.146-5.901
			c1.937-0.922,4.209-0.573,5.051,1.374c1.597,3.689,3.3,7.292,5.686,10.615c2.153,3.002,3.447,6.61,5.47,9.723
			c1.993,3.07,4.545,5.772,6.642,8.783c3.331,4.786,7.549,8.656,11.953,12.397c2.471,2.098,1.979,4.979-0.457,7.677
			c-2.2,2.438-4,5.243-5.895,7.943c-1.747,2.494-3.401,5.054-5.065,7.604c-1.446,2.216-2.922,4.418-4.251,6.703
			c-1.353,2.323-2.544,4.739-3.806,7.112c-1.336,2.513-2.767,4.979-3.982,7.546c-1.607,3.39-3.293,6.774-4.479,10.318
			c-0.926,2.766-1.565,5.765-1.599,8.668c-0.158,14.073-0.058,28.148-0.074,42.223C600.378,194.425,601.36,198.274,595.999,198.914z
			"/>
		<path fill-rule="evenodd" clip-rule="evenodd" fill="#349E7E" d="M950.186,186.662c-0.855-9.631-5.541-16.039-7.799-18.767
			c-9.485-11.464-23.938-12.382-26.328-12.022c-3.752,0.562-7.546,0.976-11.243,2.41c-3.949,1.533-6.987,3.96-9.735,6.859
			c-1.708,1.804-10.94,11.367-8.591,23.027c0.997,2.849,8.471,21.717,24.694,21.854c5.478,0.046,10.215-2.712,14.346-6.912
			c5.222-5.307,5.265-11.521,4.196-17.754c-0.558-3.26-2.567-6.749-6.478-8.104c-2.061-0.714-10.946-4.004-17.851,2.305
			c-1.327,1.773-2.682,4.192-2.052,6.943c0.235,1.028-0.125,2.192-0.269,3.953c-10.941-20.616,17.442-31.352,28.872-12.093
			c2.743,4.622,4.648,9.296,4.114,14.529c-0.418,4.066-1.208,8.024-3.849,11.738c-2.842,3.996-6.626,5.64-10.728,7.311
			c-7.504,3.058-15.369,3.038-23.283,3.033c-64.317-0.042-128.637-0.023-192.954-0.021c-0.685,0-1.368,0-2.961,0
			c1.161-1.812,29.567-48.351,46.618-69.847c1.755-1.707,16.979-15.853,41.794-11.266c4.084,0.755,8.295,1.508,12.084,3.125
			c5.605,2.391,10.32,6.354,14.146,11.083c1.729,2.137,6.011,12.324,6.26,14.779c0.399,3.911,2.8,23.853-19.317,34.593
			c-2.699,1.051-5.679,1.521-8.583,1.872c-2.483,0.301-5.032,0.138-7.552,0.068c-5.525-0.153-9.612-2.842-12.691-7.306
			c-1.873-2.715-3.201-5.783-2.783-8.966c0.629-4.796,2.463-9.069,6.822-12.06c4.023-2.76,8.633-2.771,12.265-0.997
			c5.347,2.612,4.167,8.741,4.167,10.504c-1.493,0-2.678,0.007-3.862-0.002c-5.004-0.042-9.22,5.988-6.991,10.487
			c1.374,2.772,3.648,4.905,7.215,5.184c7.063,0.552,11.543-2.566,14.782-8.769c2.379-4.555,3.521-9.219,2.677-14.04
			c-0.926-5.29-3.811-9.806-8.072-13.257c-6.382-5.171-13.934-5.381-21.463-4.317c-2.839,0.402-15.787,2.305-20.236,21.435
			c-1.003,4.315-3.199,12.944,6.177,25.11c1.474,1.805,3.219,3.482,5.123,4.821c2.38,1.675,7.918,4.49,8.087,4.536
			c5.931,1.63,12.003,2.313,18.068,1.458c20.104-3.945,27.616-13.995,30.429-17.288c14.838-14.56,9.417-35.494,8.412-39.166
			c-1.097-4.004-2.542-8.057-4.651-11.605c-3.008-5.063-7.094-9.332-11.585-13.265c-3.385-2.968-7.176-5.19-11.044-7.253
			c-16.688-5.866-33.297-3.932-36.084-3.411c-13.727,2.582-24.001,8.217-27.622,10.338c-4.041,2.368-7.448,5.387-10.532,8.592
			c-3.444,3.575-26.665,41.888-28.086,44.371c-1.407,2.457-2.941,4.839-4.421,7.253c-1.655,2.705-3.099,5.57-5.013,8.079
			c-3.138,4.11-6.715,7.869-11.285,10.44c-3.533,1.987-16.768,4.873-19.182,4.401c-4.049-0.789-8.185-1-12.214-2.479
			c-3.996-1.467-6.995-3.764-9.725-6.708c-0.733-0.791-0.978-2.017-1.651-2.883c-1.458-1.866-2.127-8.449-0.59-10.195
			c0.968-1.097,2.713-1.467,3.894-2.428c2.134-1.733,4.191-3.565,3.876-6.803c-0.233-2.413-3.989-6.809-6.404-7.208
			c-5.022-0.833-8.949,1.436-12.014,4.957c-1.282,1.476-4.5,6.542-3.342,19.771c0.353,4.947,2.257,9.599,5.965,13.239
			c0.085,0.084,0.011,0.333,0.011,0.767c-4.241,0-8.482,0-12.728,0c-16.486,0-33.013,0-49.733,0c-4.507,0-9.008,0-13.51,0
			c0-0.434-0.075-0.682,0.01-0.767c3.71-3.64,5.614-8.292,5.966-13.239c1.156-13.229-2.061-18.294-3.343-19.771
			c-3.063-3.521-6.991-5.79-12.011-4.957c-2.416,0.4-6.173,4.795-6.406,7.208c-0.313,3.237,1.742,5.07,3.876,6.803
			c1.18,0.961,2.927,1.331,3.893,2.428c1.538,1.746,0.869,8.329-0.588,10.195c-0.675,0.866-0.92,2.092-1.653,2.883
			c-2.729,2.944-5.729,5.241-9.723,6.708c-4.03,1.48-8.166,1.69-12.215,2.479c-2.414,0.472-15.648-2.414-19.181-4.401
			c-4.571-2.571-8.149-6.33-11.286-10.44c-1.914-2.508-3.357-5.374-5.013-8.079c-1.479-2.415-3.015-4.797-4.42-7.253
			c-1.421-2.482-24.644-40.795-28.085-44.371c-3.085-3.205-6.493-6.224-10.534-8.592c-3.622-2.121-13.895-7.757-27.623-10.338
			c-2.785-0.521-19.395-2.455-36.083,3.411c-3.868,2.063-7.659,4.285-11.044,7.253c-4.49,3.933-8.575,8.202-11.586,13.265
			c-2.109,3.548-3.555,7.601-4.649,11.605c-1.005,3.671-6.426,24.606,8.413,39.166c2.812,3.293,10.325,13.343,30.426,17.288
			c6.066,0.855,12.138,0.172,18.07-1.458c0.167-0.046,5.706-2.861,8.087-4.536c1.903-1.339,3.65-3.016,5.123-4.821
			c9.376-12.166,7.18-20.795,6.177-25.11c-4.45-19.13-17.398-21.033-20.236-21.435c-7.528-1.064-15.08-0.854-21.463,4.317
			c-4.261,3.451-7.147,7.967-8.073,13.257c-0.843,4.821,0.3,9.485,2.68,14.04c3.238,6.202,7.719,9.321,14.782,8.769
			c3.565-0.279,5.84-2.412,7.213-5.184c2.229-4.499-1.987-10.53-6.992-10.487c-1.184,0.009-2.368,0.002-3.86,0.002
			c0-1.764-1.182-7.892,4.167-10.504c3.631-1.774,8.241-1.764,12.266,0.997c4.357,2.991,6.193,7.264,6.82,12.06
			c0.417,3.183-0.909,6.25-2.782,8.966c-3.079,4.464-7.166,7.153-12.693,7.306c-2.518,0.07-5.068,0.232-7.553-0.068
			c-2.903-0.35-5.882-0.82-8.584-1.872c-22.114-10.74-19.714-30.682-19.316-34.593c0.25-2.455,4.532-12.642,6.261-14.779
			c3.826-4.729,8.54-8.693,14.145-11.083c3.789-1.617,7.999-2.37,12.083-3.125c24.814-4.586,40.038,9.559,41.794,11.266
			c17.052,21.496,45.458,68.035,46.618,69.847c-1.592,0-2.276,0-2.96,0c-64.318-0.002-128.637-0.021-192.956,0.021
			c-7.915,0.005-15.779,0.025-23.283-3.033c-4.102-1.671-7.886-3.315-10.727-7.311c-2.641-3.714-3.43-7.672-3.847-11.738
			c-0.537-5.233,1.351-9.921,4.111-14.529c3.053-5.096,7.984-6.714,13.121-7.686c11.805-2.233,21.483,4.573,15.753,19.779
			c-1.076-1.699-1.417-2.904-1.182-3.932c0.629-2.751,0.188-5.19-1.139-6.964c-6.904-6.309-15.791-3.019-17.851-2.305
			c-3.909,1.354-5.919,4.843-6.477,8.104c-1.067,6.233-1.024,12.447,4.197,17.754c4.13,4.199,8.868,6.958,14.345,6.912
			c16.222-0.136,23.697-19.005,24.695-21.854c2.349-11.66-6.885-21.223-8.592-23.027c-2.747-2.899-5.783-5.327-9.732-6.859
			c-3.7-1.434-7.493-1.848-11.245-2.41c-2.391-0.36-16.845,0.558-26.328,12.022c-2.257,2.729-6.944,9.136-7.799,18.767
			c-0.305,3.431-3.317,18.4,6.781,27.993c2.573,2.445,5.032,5.04,8.264,6.994c3.964,2.397,8.14,4.15,12.38,5.526
			c4.055,1.316,8.519,1.535,12.83,1.853c4.239,0.311,8.513,0.174,12.772,0.174c100.107-0.008,200.214-0.023,300.322-0.034
			c100.545,0.011,201.092,0.026,301.64,0.034c4.257,0,8.532,0.137,12.77-0.174c4.313-0.317,8.776-0.537,12.832-1.853
			c4.239-1.376,8.415-3.129,12.379-5.526c3.232-1.954,5.692-4.549,8.265-6.994C953.501,205.062,950.49,190.092,950.186,186.662z"/>
	</g>
	<g>
		<path fill-rule="evenodd" clip-rule="evenodd" fill="#349E7E" d="M595.999,644.727c-3.341,1.572-3.625,4.758-3.581,8.467
			c0.172,14.16,0.06,28.318,0.113,42.48c0.015,4.049-1.104,7.703-2.909,11.309c-1.454,2.904-2.243,6.133-3.548,9.119
			c-0.978,2.242-2.252,4.361-3.494,6.479c-0.744,1.271-1.729,2.402-2.515,3.652c-1.577,2.504-3.08,5.057-4.63,7.58
			c-1.63,2.652-3.18,5.363-4.945,7.926c-2.161,3.137-4.527,6.131-6.766,9.215c-0.855,1.178-2.061,2.367-2.251,3.676
			c-0.164,1.125,0.594,2.709,1.452,3.604c3.15,3.287,6.6,6.283,9.759,9.561c2.063,2.141,3.926,4.5,5.682,6.906
			c2.597,3.559,5.172,7.152,7.469,10.908c1.916,3.129,3.124,6.715,5.208,9.709c1.354,1.941,1.522,4.648,4.146,5.9
			c1.937,0.922,4.209,0.572,5.051-1.375c1.597-3.688,3.3-7.291,5.686-10.613c2.153-3.002,3.447-6.611,5.47-9.723
			c1.993-3.07,4.545-5.773,6.642-8.783c3.331-4.785,7.549-8.656,11.953-12.396c2.471-2.1,1.979-4.98-0.457-7.678
			c-2.2-2.438-4-5.242-5.895-7.943c-1.747-2.494-3.401-5.055-5.065-7.604c-1.446-2.215-2.922-4.418-4.251-6.703
			c-1.353-2.324-2.544-4.74-3.806-7.113c-1.336-2.512-2.767-4.979-3.982-7.547c-1.607-3.389-3.293-6.773-4.479-10.316
			c-0.926-2.766-1.565-5.766-1.599-8.67c-0.158-14.072-0.058-28.148-0.074-42.221C600.378,649.217,601.36,645.367,595.999,644.727z"
			/>
		<path fill-rule="evenodd" clip-rule="evenodd" fill="#349E7E" d="M950.186,656.979c-0.855,9.631-5.541,16.039-7.799,18.77
			c-9.485,11.463-23.938,12.381-26.328,12.021c-3.752-0.563-7.546-0.977-11.243-2.41c-3.949-1.533-6.987-3.961-9.735-6.859
			c-1.708-1.805-10.94-11.367-8.591-23.027c0.997-2.848,8.471-21.717,24.694-21.854c5.478-0.045,10.215,2.713,14.346,6.912
			c5.222,5.307,5.265,11.52,4.196,17.752c-0.558,3.262-2.567,6.75-6.478,8.105c-2.061,0.713-10.946,4.004-17.851-2.307
			c-1.327-1.773-2.682-4.191-2.052-6.941c0.235-1.027-0.125-2.193-0.269-3.953c-10.941,20.615,17.442,31.352,28.872,12.094
			c2.743-4.621,4.648-9.297,4.114-14.529c-0.418-4.066-1.208-8.025-3.849-11.738c-2.842-3.996-6.626-5.641-10.728-7.313
			c-7.504-3.057-15.369-3.037-23.283-3.031c-64.317,0.043-128.637,0.023-192.954,0.021c-0.685,0-1.368,0-2.961,0
			c1.161,1.811,29.567,48.35,46.618,69.848c1.755,1.705,16.979,15.852,41.794,11.264c4.084-0.754,8.295-1.508,12.084-3.123
			c5.605-2.393,10.32-6.355,14.146-11.084c1.729-2.137,6.011-12.324,6.26-14.779c0.399-3.91,2.8-23.854-19.317-34.594
			c-2.699-1.049-5.679-1.521-8.583-1.871c-2.483-0.299-5.032-0.137-7.552-0.068c-5.525,0.154-9.612,2.842-12.691,7.307
			c-1.873,2.715-3.201,5.783-2.783,8.967c0.629,4.795,2.463,9.07,6.822,12.061c4.023,2.76,8.633,2.77,12.265,0.996
			c5.347-2.613,4.167-8.742,4.167-10.504c-1.493,0-2.678-0.008-3.862,0c-5.004,0.045-9.22-5.988-6.991-10.486
			c1.374-2.771,3.648-4.906,7.215-5.184c7.063-0.551,11.543,2.566,14.782,8.77c2.379,4.553,3.521,9.219,2.677,14.039
			c-0.926,5.291-3.811,9.807-8.072,13.256c-6.382,5.172-13.934,5.381-21.463,4.318c-2.839-0.402-15.787-2.307-20.236-21.436
			c-1.003-4.314-3.199-12.945,6.177-25.111c1.474-1.805,3.219-3.48,5.123-4.82c2.38-1.676,7.918-4.49,8.087-4.535
			c5.931-1.631,12.003-2.313,18.068-1.459c20.104,3.945,27.616,13.996,30.429,17.287c14.838,14.561,9.417,35.496,8.412,39.166
			c-1.097,4.006-2.542,8.059-4.651,11.605c-3.008,5.063-7.094,9.334-11.585,13.266c-3.385,2.969-7.176,5.189-11.044,7.254
			c-16.688,5.865-33.297,3.932-36.084,3.412c-13.727-2.584-24.001-8.219-27.622-10.34c-4.041-2.369-7.448-5.387-10.532-8.592
			c-3.444-3.576-26.665-41.889-28.086-44.371c-1.407-2.457-2.941-4.838-4.421-7.254c-1.655-2.705-3.099-5.57-5.013-8.078
			c-3.138-4.109-6.715-7.869-11.285-10.439c-3.533-1.986-16.768-4.873-19.182-4.402c-4.049,0.789-8.185,1-12.214,2.48
			c-3.996,1.467-6.995,3.764-9.725,6.707c-0.733,0.791-0.978,2.018-1.651,2.885c-1.458,1.863-2.127,8.447-0.59,10.193
			c0.968,1.098,2.713,1.467,3.894,2.428c2.134,1.732,4.191,3.566,3.876,6.803c-0.233,2.412-3.989,6.809-6.404,7.209
			c-5.022,0.832-8.949-1.436-12.014-4.957c-1.282-1.477-4.5-6.541-3.342-19.77c0.353-4.947,2.257-9.6,5.965-13.24
			c0.085-0.084,0.011-0.332,0.011-0.768c-4.241,0-8.482,0-12.728,0c-16.486,0-33.013,0-49.733,0c-4.507,0-9.008,0-13.51,0
			c0,0.436-0.075,0.684,0.01,0.768c3.71,3.641,5.614,8.293,5.966,13.24c1.156,13.229-2.061,18.293-3.343,19.77
			c-3.063,3.521-6.991,5.789-12.011,4.957c-2.416-0.4-6.173-4.797-6.406-7.209c-0.313-3.236,1.742-5.07,3.876-6.803
			c1.18-0.961,2.927-1.33,3.893-2.428c1.538-1.746,0.869-8.33-0.588-10.193c-0.675-0.867-0.92-2.094-1.653-2.885
			c-2.729-2.943-5.729-5.24-9.723-6.707c-4.03-1.48-8.166-1.691-12.215-2.48c-2.414-0.471-15.648,2.416-19.181,4.402
			c-4.571,2.57-8.149,6.33-11.286,10.439c-1.914,2.508-3.357,5.373-5.013,8.078c-1.479,2.416-3.015,4.797-4.42,7.254
			c-1.421,2.482-24.644,40.795-28.085,44.371c-3.085,3.205-6.493,6.223-10.534,8.592c-3.622,2.121-13.895,7.756-27.623,10.34
			c-2.785,0.52-19.395,2.453-36.083-3.412c-3.868-2.064-7.659-4.285-11.044-7.254c-4.49-3.932-8.575-8.203-11.586-13.266
			c-2.109-3.547-3.555-7.6-4.649-11.605c-1.005-3.67-6.426-24.605,8.413-39.166c2.812-3.291,10.325-13.342,30.426-17.287
			c6.066-0.854,12.138-0.172,18.07,1.459c0.167,0.045,5.706,2.859,8.087,4.535c1.903,1.34,3.65,3.016,5.123,4.82
			c9.376,12.166,7.18,20.797,6.177,25.111c-4.45,19.129-17.398,21.033-20.236,21.436c-7.528,1.063-15.08,0.854-21.463-4.318
			c-4.261-3.449-7.147-7.965-8.073-13.256c-0.843-4.82,0.3-9.486,2.68-14.039c3.238-6.203,7.719-9.32,14.782-8.77
			c3.565,0.277,5.84,2.412,7.213,5.184c2.229,4.498-1.987,10.531-6.992,10.486c-1.184-0.008-2.368,0-3.86,0
			c0,1.762-1.182,7.891,4.167,10.504c3.631,1.773,8.241,1.764,12.266-0.996c4.357-2.99,6.193-7.266,6.82-12.061
			c0.417-3.184-0.909-6.252-2.782-8.967c-3.079-4.465-7.166-7.152-12.693-7.307c-2.518-0.068-5.068-0.23-7.553,0.068
			c-2.903,0.35-5.882,0.822-8.584,1.871c-22.114,10.74-19.714,30.684-19.316,34.594c0.25,2.455,4.532,12.643,6.261,14.779
			c3.826,4.729,8.54,8.691,14.145,11.084c3.789,1.615,7.999,2.369,12.083,3.123c24.814,4.588,40.038-9.559,41.794-11.264
			c17.052-21.498,45.458-68.037,46.618-69.848c-1.592,0-2.276,0-2.96,0c-64.318,0.002-128.637,0.021-192.956-0.021
			c-7.915-0.006-15.779-0.025-23.283,3.031c-4.102,1.672-7.886,3.316-10.727,7.313c-2.641,3.713-3.43,7.672-3.847,11.738
			c-0.537,5.232,1.351,9.92,4.111,14.529c3.053,5.096,7.984,6.713,13.121,7.684c11.805,2.232,21.483-4.572,15.753-19.777
			c-1.076,1.697-1.417,2.902-1.182,3.932c0.629,2.752,0.188,5.189-1.139,6.963c-6.904,6.311-15.791,3.02-17.851,2.307
			c-3.909-1.355-5.919-4.844-6.477-8.105c-1.067-6.232-1.024-12.445,4.197-17.752c4.13-4.199,8.868-6.957,14.345-6.912
			c16.222,0.137,23.697,19.006,24.695,21.854c2.349,11.66-6.885,21.223-8.592,23.027c-2.747,2.898-5.783,5.326-9.732,6.859
			c-3.7,1.434-7.493,1.848-11.245,2.41c-2.391,0.359-16.845-0.559-26.328-12.021c-2.257-2.73-6.944-9.139-7.799-18.77
			c-0.305-3.428-3.317-18.398,6.781-27.992c2.573-2.445,5.032-5.039,8.264-6.994c3.964-2.396,8.14-4.15,12.38-5.525
			c4.055-1.318,8.519-1.535,12.83-1.854c4.239-0.311,8.513-0.174,12.772-0.174c100.107,0.008,200.214,0.023,300.322,0.035
			c100.545-0.012,201.092-0.027,301.64-0.035c4.257,0,8.532-0.137,12.77,0.174c4.313,0.318,8.776,0.535,12.832,1.854
			c4.239,1.375,8.415,3.129,12.379,5.525c3.232,1.955,5.692,4.549,8.265,6.994C953.501,638.58,950.49,653.551,950.186,656.979z"/>
	</g>
</g>
</svg>
